<svg width="28" height="34" viewBox="0 0 28 34" fill="currentColor" xmlns="http://www.w3.org/2000/svg">
                <path d="M22.9805 18.0645C22.9805 15.3906 24.209 13.4395 26.5938 11.9219C25.2207 9.9707 23.1973 8.95898 20.5234 8.74219C17.9219 8.52539 15.1035 10.1875 14.0918 10.1875C13.0078 10.1875 10.5508 8.81445 8.59961 8.81445C4.55273 8.88672 0.289062 11.9941 0.289062 18.4258C0.289062 20.3047 0.578125 22.2559 1.30078 24.2793C2.24023 26.9531 5.56445 33.457 9.0332 33.3125C10.8398 33.3125 12.1406 32.0117 14.5254 32.0117C16.8379 32.0117 17.9941 33.3125 20.0176 33.3125C23.5586 33.3125 26.5938 27.3867 27.4609 24.7129C22.7637 22.4727 22.9805 18.209 22.9805 18.0645ZM18.9336 6.21289C20.8848 3.90039 20.668 1.73242 20.668 0.9375C18.9336 1.08203 16.9102 2.16602 15.7539 3.4668C14.4531 4.91211 13.7305 6.71875 13.875 8.66992C15.7539 8.81445 17.4883 7.875 18.9336 6.21289Z" />
                </svg>