<svg width="34" height="35" viewBox="0 0 34 35" fill="currentColor" xmlns="http://www.w3.org/2000/svg">
                <path d="M16.9531 0.921875C7.58789 0.921875 0 8.57812 0 17.875C0 27.2402 7.58789 34.8281 16.9531 34.8281C26.25 34.8281 33.9062 27.2402 33.9062 17.875C33.9062 8.57812 26.25 0.921875 16.9531 0.921875ZM23.7891 25.873C23.5156 25.873 23.3105 25.8047 23.1055 25.668C18.7988 23.0703 13.877 23.002 8.95508 23.959C8.68164 24.0273 8.33984 24.1641 8.13477 24.1641C7.45117 24.1641 7.04102 23.6172 7.04102 23.0703C7.04102 22.3867 7.45117 22.0449 7.99805 21.9082C13.6035 20.6777 19.2773 20.8145 24.1992 23.6855C24.6094 23.959 24.8145 24.2324 24.8145 24.8477C24.8145 25.4629 24.3359 25.873 23.7891 25.873ZM25.6348 21.4297C25.293 21.4297 25.0195 21.2246 24.8145 21.1562C20.5078 18.627 14.1504 17.6016 8.47656 19.1055C8.13477 19.1738 7.99805 19.3105 7.65625 19.3105C6.97266 19.3105 6.35742 18.6953 6.35742 17.9434C6.35742 17.2598 6.69922 16.7812 7.38281 16.5762C9.29688 16.0293 11.2793 15.6191 14.082 15.6191C18.5254 15.6191 22.832 16.7129 26.1816 18.7637C26.7285 19.0371 27.002 19.5156 27.002 20.0625C26.9336 20.8145 26.3867 21.4297 25.6348 21.4297ZM27.7539 16.2344C27.4121 16.2344 27.207 16.0977 26.8652 15.9609C22.0117 13.0215 13.3301 12.3379 7.65625 13.9102C7.45117 13.9785 7.10938 14.1152 6.76758 14.1152C5.87891 14.1152 5.19531 13.3633 5.19531 12.4746C5.19531 11.5176 5.81055 11.0391 6.42578 10.834C8.81836 10.1504 11.4844 9.80859 14.4238 9.80859C19.4141 9.80859 24.6777 10.834 28.4375 13.0898C28.9844 13.3633 29.3262 13.7734 29.3262 14.5938C29.3262 15.5508 28.5742 16.2344 27.7539 16.2344Z"/>
                </svg>